<svg width="512" height="5120" xmlns="http://www.w3.org/2000/svg"><style> .small { font: italic 5px sans-serif; } </style><path stroke="red" stroke-width="1" d="M 18 198 32 228 "/><text class="small" x="25" y="213">(25,213,438)</text><path stroke="red" stroke-width="1" d="M 34 235 46 281 "/><text class="small" x="40" y="258">(40,258,469)</text><path stroke="red" stroke-width="1" d="M 36 249 44 281 "/><text class="small" x="40" y="265">(40,265,469)</text><path stroke="red" stroke-width="1" d="M 48 285 59 334 "/><text class="small" x="53" y="309">(53,309,475)</text><path stroke="red" stroke-width="1" d="M 53 305 67 353 "/><text class="small" x="60" y="329">(60,329,463)</text><path stroke="red" stroke-width="1" d="M 58 324 65 347 "/><text class="small" x="61" y="335">(61,335,463)</text><path stroke="red" stroke-width="1" d="M 60 338 71 367 "/><text class="small" x="65" y="352">(65,352,452)</text><path stroke="red" stroke-width="1" d="M 63 349 104 495 "/><text class="small" x="83" y="422">(83,422,466)</text><path stroke="red" stroke-width="1" d="M 68 366 77 396 "/><text class="small" x="72" y="381">(72,381,463)</text><path stroke="red" stroke-width="1" d="M 76 387 82 407 "/><text class="small" x="79" y="397">(79,397,463)</text><path stroke="red" stroke-width="1" d="M 93 449 104 485 "/><text class="small" x="98" y="467">(98,467,463)</text><path stroke="red" stroke-width="1" d="M 100 474 106 496 "/><text class="small" x="103" y="485">(103,485,466)</text><path stroke="red" stroke-width="1" d="M 103 492 126 506 "/><text class="small" x="114" y="499">(114,499,344)</text><path stroke="red" stroke-width="1" d="M 35 496 65 384 "/><text class="small" x="50" y="440">(50,440,42)</text><path stroke="red" stroke-width="1" d="M 39 486 50 448 "/><text class="small" x="44" y="467">(44,467,48)</text><path stroke="red" stroke-width="1" d="M 41 477 90 305 "/><text class="small" x="65" y="391">(65,391,45)</text><path stroke="red" stroke-width="1" d="M 53 430 59 407 "/><text class="small" x="56" y="418">(56,418,42)</text><path stroke="red" stroke-width="1" d="M 58 416 119 201 "/><text class="small" x="88" y="308">(88,308,45)</text><path stroke="red" stroke-width="1" d="M 65 387 105 241 "/><text class="small" x="85" y="314">(85,314,45)</text><path stroke="red" stroke-width="1" d="M 109 228 119 200 "/><text class="small" x="114" y="214">(114,214,56)</text><path stroke="red" stroke-width="1" d="M 37 414 126 414 "/><text class="small" x="81" y="414">(81,414,256)</text><path stroke="red" stroke-width="1" d="M 37 416 71 416 "/><text class="small" x="54" y="416">(54,416,256)</text><path stroke="red" stroke-width="1" d="M 90 416 126 416 "/><text class="small" x="108" y="416">(108,416,256)</text><path stroke="red" stroke-width="1" d="M 54 311 242 311 "/><text class="small" x="148" y="311">(148,311,256)</text><path stroke="red" stroke-width="1" d="M 54 423 242 423 "/><text class="small" x="148" y="423">(148,423,256)</text><path stroke="red" stroke-width="1" d="M 56 309 242 309 "/><text class="small" x="149" y="309">(149,309,256)</text><path stroke="red" stroke-width="1" d="M 56 421 242 421 "/><text class="small" x="149" y="421">(149,421,256)</text><path stroke="red" stroke-width="1" d="M 41 187 64 227 "/><text class="small" x="52" y="207">(52,207,426)</text><path stroke="red" stroke-width="1" d="M 47 193 62 220 "/><text class="small" x="54" y="206">(54,206,426)</text><path stroke="red" stroke-width="1" d="M 63 220 103 319 "/><text class="small" x="83" y="269">(83,269,446)</text><path stroke="red" stroke-width="1" d="M 75 244 95 293 "/><text class="small" x="85" y="268">(85,268,446)</text><path stroke="red" stroke-width="1" d="M 76 250 91 287 "/><text class="small" x="83" y="268">(83,268,446)</text><path stroke="red" stroke-width="1" d="M 89 503 110 487 "/><text class="small" x="99" y="495">(99,495,150)</text><path stroke="red" stroke-width="1" d="M 96 296 103 322 "/><text class="small" x="99" y="309">(99,309,466)</text><path stroke="red" stroke-width="1" d="M 104 494 112 469 "/><text class="small" x="108" y="481">(108,481,51)</text><path stroke="red" stroke-width="1" d="M 105 326 109 359 "/><text class="small" x="107" y="342">(107,342,492)</text><path stroke="red" stroke-width="1" d="M 109 343 115 387 "/><text class="small" x="112" y="365">(112,365,489)</text><path stroke="red" stroke-width="1" d="M 109 490 110 465 "/><text class="small" x="109" y="477">(109,477,8)</text><path stroke="red" stroke-width="1" d="M 110 360 114 404 "/><text class="small" x="112" y="382">(112,382,494)</text><path stroke="red" stroke-width="1" d="M 113 446 114 414 "/><text class="small" x="113" y="430">(113,430,5)</text><path stroke="red" stroke-width="1" d="M 115 446 116 402 "/><text class="small" x="115" y="424">(115,424,5)</text><path stroke="red" stroke-width="1" d="M 53 410 57 360 "/><text class="small" x="55" y="385">(55,385,14)</text><path stroke="red" stroke-width="1" d="M 53 411 57 467 "/><text class="small" x="55" y="439">(55,439,497)</text><path stroke="red" stroke-width="1" d="M 54 399 57 444 "/><text class="small" x="55" y="421">(55,421,500)</text><path stroke="red" stroke-width="1" d="M 56 396 63 329 "/><text class="small" x="59" y="362">(59,362,17)</text><path stroke="red" stroke-width="1" d="M 58 453 59 483 "/><text class="small" x="58" y="468">(58,468,506)</text><path stroke="red" stroke-width="1" d="M 60 486 83 504 "/><text class="small" x="71" y="495">(71,495,364)</text><path stroke="red" stroke-width="1" d="M 68 311 86 261 "/><text class="small" x="77" y="286">(77,286,56)</text><path stroke="red" stroke-width="1" d="M 74 298 95 246 "/><text class="small" x="84" y="272">(84,272,62)</text><path stroke="red" stroke-width="1" d="M 79 283 86 263 "/><text class="small" x="82" y="273">(82,273,56)</text><path stroke="red" stroke-width="1" d="M 91 250 128 190 "/><text class="small" x="109" y="220">(109,220,91)</text><path stroke="red" stroke-width="1" d="M 95 242 129 187 "/><text class="small" x="112" y="214">(112,214,91)</text><path stroke="red" stroke-width="1" d="M 106 221 127 188 "/><text class="small" x="116" y="204">(116,204,93)</text><path stroke="red" stroke-width="1" d="M 40 509 62 501 "/><text class="small" x="51" y="505">(51,505,201)</text><path stroke="red" stroke-width="1" d="M 40 511 66 500 "/><text class="small" x="53" y="505">(53,505,193)</text><path stroke="red" stroke-width="1" d="M 53 503 77 502 "/><text class="small" x="65" y="502">(65,502,250)</text><path stroke="red" stroke-width="1" d="M 73 500 98 507 "/><text class="small" x="85" y="503">(85,503,298)</text><path stroke="red" stroke-width="1" d="M 77 500 102 511 "/><text class="small" x="89" y="505">(89,505,321)</text><path stroke="red" stroke-width="1" d="M 42 363 96 237 "/><text class="small" x="69" y="300">(69,300,68)</text><path stroke="red" stroke-width="1" d="M 47 356 57 332 "/><text class="small" x="52" y="344">(52,344,65)</text><path stroke="red" stroke-width="1" d="M 82 274 99 234 "/><text class="small" x="90" y="254">(90,254,68)</text><path stroke="red" stroke-width="1" d="M 91 254 100 233 "/><text class="small" x="95" y="243">(95,243,68)</text><path stroke="red" stroke-width="1" d="M 97 236 121 221 "/><text class="small" x="109" y="228">(109,228,164)</text><path stroke="red" stroke-width="1" d="M 102 235 122 224 "/><text class="small" x="112" y="229">(112,229,176)</text><path stroke="red" stroke-width="1" d="M 119 221 144 241 "/><text class="small" x="131" y="231">(131,231,364)</text><path stroke="red" stroke-width="1" d="M 136 232 161 279 "/><text class="small" x="148" y="255">(148,255,429)</text><path stroke="red" stroke-width="1" d="M 152 264 194 359 "/><text class="small" x="173" y="311">(173,311,443)</text><path stroke="red" stroke-width="1" d="M 154 268 168 295 "/><text class="small" x="161" y="281">(161,281,432)</text><path stroke="red" stroke-width="1" d="M 166 292 178 319 "/><text class="small" x="172" y="305">(172,305,443)</text><path stroke="red" stroke-width="1" d="M 177 316 196 362 "/><text class="small" x="186" y="339">(186,339,446)</text><path stroke="red" stroke-width="1" d="M 179 327 191 354 "/><text class="small" x="185" y="340">(185,340,443)</text>"</svg>