<svg width="512" height="5120" xmlns="http://www.w3.org/2000/svg"><style> .small { font: italic 5px sans-serif; } </style><path stroke="red" stroke-width="1" d="M 54 111 199 423 "/><text class="small" x="126" y="267">(126,267,440)</text><path stroke="red" stroke-width="1" d="M 61 122 73 146 "/><text class="small" x="67" y="134">(67,134,435)</text><path stroke="red" stroke-width="1" d="M 67 135 201 423 "/><text class="small" x="134" y="279">(134,279,440)</text><path stroke="red" stroke-width="1" d="M 56 420 78 371 "/><text class="small" x="67" y="395">(67,395,71)</text><path stroke="red" stroke-width="1" d="M 58 419 201 111 "/><text class="small" x="129" y="265">(129,265,71)</text><path stroke="red" stroke-width="1" d="M 64 403 108 306 "/><text class="small" x="86" y="354">(86,354,71)</text><path stroke="red" stroke-width="1" d="M 120 280 131 258 "/><text class="small" x="125" y="269">(125,269,76)</text><path stroke="red" stroke-width="1" d="M 138 242 151 218 "/><text class="small" x="144" y="230">(144,230,82)</text><path stroke="red" stroke-width="1" d="M 142 233 159 201 "/><text class="small" x="150" y="217">(150,217,79)</text><path stroke="red" stroke-width="1" d="M 153 210 165 188 "/><text class="small" x="159" y="199">(159,199,82)</text><path stroke="red" stroke-width="1" d="M 157 201 170 173 "/><text class="small" x="163" y="187">(163,187,71)</text><path stroke="red" stroke-width="1" d="M 162 191 198 112 "/><text class="small" x="180" y="151">(180,151,71)</text><path stroke="red" stroke-width="1" d="M 173 170 193 128 "/><text class="small" x="183" y="149">(183,149,73)</text><path stroke="red" stroke-width="1" d="M 56 267 197 267 "/><text class="small" x="126" y="267">(126,267,256)</text><path stroke="red" stroke-width="1" d="M 58 265 197 265 "/><text class="small" x="127" y="265">(127,265,256)</text><path stroke="red" stroke-width="1" d="M 39 220 216 220 "/><text class="small" x="127" y="220">(127,220,256)</text><path stroke="red" stroke-width="1" d="M 39 324 216 324 "/><text class="small" x="127" y="324">(127,324,256)</text><path stroke="red" stroke-width="1" d="M 39 326 216 326 "/><text class="small" x="127" y="326">(127,326,256)</text><path stroke="red" stroke-width="1" d="M 50 218 82 218 "/><text class="small" x="66" y="218">(66,218,256)</text><path stroke="red" stroke-width="1" d="M 98 218 216 218 "/><text class="small" x="157" y="218">(157,218,256)</text><path stroke="red" stroke-width="1" d="M 36 452 220 452 "/><text class="small" x="128" y="452">(128,452,256)</text><path stroke="red" stroke-width="1" d="M 61 454 117 454 "/><text class="small" x="89" y="454">(89,454,256)</text><path stroke="red" stroke-width="1" d="M 163 454 191 454 "/><text class="small" x="177" y="454">(177,454,256)</text><path stroke="red" stroke-width="1" d="M 192 454 220 454 "/><text class="small" x="206" y="454">(206,454,256)</text><path stroke="red" stroke-width="1" d="M 51 500 94 466 "/><text class="small" x="72" y="483">(72,483,147)</text><path stroke="red" stroke-width="1" d="M 54 497 102 458 "/><text class="small" x="78" y="477">(78,477,145)</text><path stroke="red" stroke-width="1" d="M 59 107 82 127 "/><text class="small" x="70" y="117">(70,117,372)</text><path stroke="red" stroke-width="1" d="M 59 490 84 472 "/><text class="small" x="71" y="481">(71,481,156)</text><path stroke="red" stroke-width="1" d="M 69 114 119 161 "/><text class="small" x="94" y="137">(94,137,378)</text><path stroke="red" stroke-width="1" d="M 87 127 110 149 "/><text class="small" x="98" y="138">(98,138,378)</text><path stroke="red" stroke-width="1" d="M 90 467 115 440 "/><text class="small" x="102" y="453">(102,453,122)</text><path stroke="red" stroke-width="1" d="M 112 448 141 405 "/><text class="small" x="126" y="426">(126,426,96)</text><path stroke="red" stroke-width="1" d="M 113 157 135 182 "/><text class="small" x="124" y="169">(124,169,392)</text><path stroke="red" stroke-width="1" d="M 120 438 138 405 "/><text class="small" x="129" y="421">(129,421,82)</text><path stroke="red" stroke-width="1" d="M 127 175 142 195 "/><text class="small" x="134" y="185">(134,185,406)</text><path stroke="red" stroke-width="1" d="M 130 180 146 203 "/><text class="small" x="138" y="191">(138,191,412)</text><path stroke="red" stroke-width="1" d="M 139 189 159 244 "/><text class="small" x="149" y="216">(149,216,455)</text><path stroke="red" stroke-width="1" d="M 147 393 166 327 "/><text class="small" x="156" y="360">(156,360,48)</text><path stroke="red" stroke-width="1" d="M 148 207 159 237 "/><text class="small" x="153" y="222">(153,222,452)</text><path stroke="red" stroke-width="1" d="M 148 211 157 236 "/><text class="small" x="152" y="223">(152,223,455)</text><path stroke="red" stroke-width="1" d="M 153 379 163 345 "/><text class="small" x="158" y="362">(158,362,48)</text><path stroke="red" stroke-width="1" d="M 164 279 164 256 "/><text class="small" x="164" y="267">(164,267,512)</text><path stroke="red" stroke-width="1" d="M 165 316 165 280 "/><text class="small" x="165" y="298">(165,298,512)</text><path stroke="red" stroke-width="1" d="M 167 313 167 280 "/><text class="small" x="167" y="296">(167,296,512)</text><path stroke="red" stroke-width="1" d="M 88 316 88 285 "/><text class="small" x="88" y="300">(88,300,512)</text><path stroke="red" stroke-width="1" d="M 88 312 97 354 "/><text class="small" x="92" y="333">(92,333,475)</text><path stroke="red" stroke-width="1" d="M 89 263 102 217 "/><text class="small" x="95" y="240">(95,240,45)</text><path stroke="red" stroke-width="1" d="M 89 265 96 229 "/><text class="small" x="92" y="247">(92,247,34)</text><path stroke="red" stroke-width="1" d="M 89 324 95 349 "/><text class="small" x="92" y="336">(92,336,472)</text><path stroke="red" stroke-width="1" d="M 89 327 99 371 "/><text class="small" x="94" y="349">(94,349,475)</text><path stroke="red" stroke-width="1" d="M 90 316 90 275 "/><text class="small" x="90" y="295">(90,295,512)</text><path stroke="red" stroke-width="1" d="M 91 268 95 243 "/><text class="small" x="93" y="255">(93,255,28)</text><path stroke="red" stroke-width="1" d="M 100 217 131 159 "/><text class="small" x="115" y="188">(115,188,82)</text><path stroke="red" stroke-width="1" d="M 105 387 138 444 "/><text class="small" x="121" y="415">(121,415,423)</text><path stroke="red" stroke-width="1" d="M 107 200 123 170 "/><text class="small" x="115" y="185">(115,185,82)</text><path stroke="red" stroke-width="1" d="M 111 400 127 429 "/><text class="small" x="119" y="414">(119,414,429)</text><path stroke="red" stroke-width="1" d="M 115 183 147 144 "/><text class="small" x="131" y="163">(131,163,113)</text><path stroke="red" stroke-width="1" d="M 140 447 197 497 "/><text class="small" x="168" y="472">(168,472,372)</text><path stroke="red" stroke-width="1" d="M 155 136 180 113 "/><text class="small" x="167" y="124">(167,124,136)</text><path stroke="red" stroke-width="1" d="M 164 128 186 110 "/><text class="small" x="175" y="119">(175,119,145)</text><path stroke="red" stroke-width="1" d="M 168 476 198 499 "/><text class="small" x="183" y="487">(183,487,361)</text><path stroke="red" stroke-width="1" d="M 90 510 119 476 "/><text class="small" x="104" y="493">(104,493,116)</text><path stroke="red" stroke-width="1" d="M 112 486 130 444 "/><text class="small" x="121" y="465">(121,465,68)</text><path stroke="red" stroke-width="1" d="M 132 436 132 415 "/><text class="small" x="132" y="425">(132,425,512)</text><path stroke="red" stroke-width="1" d="M 66 231 106 167 "/><text class="small" x="86" y="199">(86,199,93)</text><path stroke="red" stroke-width="1" d="M 69 227 105 170 "/><text class="small" x="87" y="198">(87,198,93)</text><path stroke="red" stroke-width="1" d="M 69 231 110 163 "/><text class="small" x="89" y="197">(89,197,91)</text><path stroke="red" stroke-width="1" d="M 76 221 100 181 "/><text class="small" x="88" y="201">(88,201,88)</text><path stroke="red" stroke-width="1" d="M 111 163 131 152 "/><text class="small" x="121" y="157">(121,157,176)</text><path stroke="red" stroke-width="1" d="M 129 156 131 129 "/><text class="small" x="130" y="142">(130,142,14)</text><path stroke="red" stroke-width="1" d="M 130 156 132 131 "/><text class="small" x="131" y="143">(131,143,14)</text><path stroke="red" stroke-width="1" d="M 144 161 185 229 "/><text class="small" x="164" y="195">(164,195,420)</text><path stroke="red" stroke-width="1" d="M 157 178 170 201 "/><text class="small" x="163" y="189">(163,189,426)</text><path stroke="red" stroke-width="1" d="M 166 195 184 226 "/><text class="small" x="175" y="210">(175,210,423)</text><path stroke="red" stroke-width="1" d="M 166 199 183 228 "/><text class="small" x="174" y="213">(174,213,423)</text>"</svg>