<svg width="512" height="5120" xmlns="http://www.w3.org/2000/svg"><style> .small { font: italic 5px sans-serif; } </style><path stroke="red" stroke-width="1" d="M 36 124 214 419 "/><text class="small" x="125" y="271">(125,271,420)</text><path stroke="red" stroke-width="1" d="M 36 127 213 421 "/><text class="small" x="124" y="274">(124,274,420)</text><path stroke="red" stroke-width="1" d="M 39 131 201 400 "/><text class="small" x="120" y="265">(120,265,420)</text><path stroke="red" stroke-width="1" d="M 40 129 218 425 "/><text class="small" x="129" y="277">(129,277,420)</text><path stroke="red" stroke-width="1" d="M 30 436 215 129 "/><text class="small" x="122" y="282">(122,282,91)</text><path stroke="red" stroke-width="1" d="M 38 426 223 119 "/><text class="small" x="130" y="272">(130,272,91)</text><path stroke="red" stroke-width="1" d="M 198 162 219 127 "/><text class="small" x="208" y="144">(208,144,88)</text><path stroke="red" stroke-width="1" d="M 65 307 188 307 "/><text class="small" x="126" y="307">(126,307,256)</text><path stroke="red" stroke-width="1" d="M 67 305 188 305 "/><text class="small" x="127" y="305">(127,305,256)</text><path stroke="red" stroke-width="1" d="M 30 290 223 290 "/><text class="small" x="126" y="290">(126,290,256)</text><path stroke="red" stroke-width="1" d="M 30 362 223 362 "/><text class="small" x="126" y="362">(126,362,256)</text><path stroke="red" stroke-width="1" d="M 32 288 223 288 "/><text class="small" x="127" y="288">(127,288,256)</text><path stroke="red" stroke-width="1" d="M 32 360 223 360 "/><text class="small" x="127" y="360">(127,360,256)</text><path stroke="red" stroke-width="1" d="M 30 454 223 454 "/><text class="small" x="126" y="454">(126,454,256)</text><path stroke="red" stroke-width="1" d="M 32 452 223 452 "/><text class="small" x="127" y="452">(127,452,256)</text><path stroke="red" stroke-width="1" d="M 34 504 63 495 "/><text class="small" x="48" y="499">(48,499,207)</text><path stroke="red" stroke-width="1" d="M 46 498 78 491 "/><text class="small" x="62" y="494">(62,494,221)</text><path stroke="red" stroke-width="1" d="M 52 111 113 137 "/><text class="small" x="82" y="124">(82,124,321)</text><path stroke="red" stroke-width="1" d="M 73 118 97 128 "/><text class="small" x="85" y="123">(85,123,318)</text><path stroke="red" stroke-width="1" d="M 78 490 100 480 "/><text class="small" x="89" y="485">(89,485,187)</text><path stroke="red" stroke-width="1" d="M 79 488 123 465 "/><text class="small" x="101" y="476">(101,476,179)</text><path stroke="red" stroke-width="1" d="M 86 485 119 468 "/><text class="small" x="102" y="476">(102,476,179)</text><path stroke="red" stroke-width="1" d="M 110 471 130 459 "/><text class="small" x="120" y="465">(120,465,170)</text><path stroke="red" stroke-width="1" d="M 133 453 163 419 "/><text class="small" x="148" y="436">(148,436,119)</text><path stroke="red" stroke-width="1" d="M 136 160 165 193 "/><text class="small" x="150" y="176">(150,176,392)</text><path stroke="red" stroke-width="1" d="M 136 454 156 430 "/><text class="small" x="146" y="442">(146,442,113)</text><path stroke="red" stroke-width="1" d="M 137 157 160 185 "/><text class="small" x="148" y="171">(148,171,398)</text><path stroke="red" stroke-width="1" d="M 144 167 161 187 "/><text class="small" x="152" y="177">(152,177,395)</text><path stroke="red" stroke-width="1" d="M 152 174 185 239 "/><text class="small" x="168" y="206">(168,206,435)</text><path stroke="red" stroke-width="1" d="M 167 197 181 227 "/><text class="small" x="174" y="212">(174,212,438)</text><path stroke="red" stroke-width="1" d="M 170 407 191 343 "/><text class="small" x="180" y="375">(180,375,54)</text><path stroke="red" stroke-width="1" d="M 173 401 185 371 "/><text class="small" x="179" y="386">(179,386,62)</text><path stroke="red" stroke-width="1" d="M 178 219 194 290 "/><text class="small" x="186" y="254">(186,254,475)</text><path stroke="red" stroke-width="1" d="M 188 361 192 321 "/><text class="small" x="190" y="341">(190,341,17)</text><path stroke="red" stroke-width="1" d="M 192 316 194 291 "/><text class="small" x="193" y="303">(193,303,14)</text><path stroke="red" stroke-width="1" d="M 60 311 61 281 "/><text class="small" x="60" y="296">(60,296,5)</text><path stroke="red" stroke-width="1" d="M 60 313 65 354 "/><text class="small" x="62" y="333">(62,333,492)</text><path stroke="red" stroke-width="1" d="M 62 306 68 244 "/><text class="small" x="65" y="275">(65,275,17)</text><path stroke="red" stroke-width="1" d="M 62 308 69 369 "/><text class="small" x="65" y="338">(65,338,492)</text><path stroke="red" stroke-width="1" d="M 63 268 86 201 "/><text class="small" x="74" y="234">(74,234,54)</text><path stroke="red" stroke-width="1" d="M 65 351 75 378 "/><text class="small" x="70" y="364">(70,364,452)</text><path stroke="red" stroke-width="1" d="M 72 233 83 206 "/><text class="small" x="77" y="219">(77,219,65)</text><path stroke="red" stroke-width="1" d="M 74 377 86 405 "/><text class="small" x="80" y="391">(80,391,443)</text><path stroke="red" stroke-width="1" d="M 77 220 101 180 "/><text class="small" x="89" y="200">(89,200,88)</text><path stroke="red" stroke-width="1" d="M 80 397 112 441 "/><text class="small" x="96" y="419">(96,419,406)</text><path stroke="red" stroke-width="1" d="M 85 407 103 430 "/><text class="small" x="94" y="418">(94,418,401)</text><path stroke="red" stroke-width="1" d="M 94 187 124 155 "/><text class="small" x="109" y="171">(109,171,125)</text><path stroke="red" stroke-width="1" d="M 100 178 117 158 "/><text class="small" x="108" y="168">(108,168,116)</text><path stroke="red" stroke-width="1" d="M 140 471 166 483 "/><text class="small" x="153" y="477">(153,477,324)</text><path stroke="red" stroke-width="1" d="M 142 137 165 127 "/><text class="small" x="153" y="132">(153,132,190)</text><path stroke="red" stroke-width="1" d="M 145 135 203 111 "/><text class="small" x="174" y="123">(174,123,193)</text><path stroke="red" stroke-width="1" d="M 154 130 181 118 "/><text class="small" x="167" y="124">(167,124,190)</text><path stroke="red" stroke-width="1" d="M 159 482 186 495 "/><text class="small" x="172" y="488">(172,488,327)</text><path stroke="red" stroke-width="1" d="M 190 493 218 504 "/><text class="small" x="204" y="498">(204,498,315)</text><path stroke="red" stroke-width="1" d="M 192 493 214 500 "/><text class="small" x="203" y="496">(203,496,304)</text><path stroke="red" stroke-width="1" d="M 88 511 110 503 "/><text class="small" x="99" y="507">(99,507,201)</text><path stroke="red" stroke-width="1" d="M 125 499 141 463 "/><text class="small" x="133" y="481">(133,481,68)</text><path stroke="red" stroke-width="1" d="M 129 493 139 472 "/><text class="small" x="134" y="482">(134,482,73)</text><path stroke="red" stroke-width="1" d="M 135 417 145 439 "/><text class="small" x="140" y="428">(140,428,440)</text><path stroke="red" stroke-width="1" d="M 138 476 141 451 "/><text class="small" x="139" y="463">(139,463,19)</text><path stroke="red" stroke-width="1" d="M 36 326 53 301 "/><text class="small" x="44" y="313">(44,313,99)</text><path stroke="red" stroke-width="1" d="M 48 306 61 285 "/><text class="small" x="54" y="295">(54,295,91)</text><path stroke="red" stroke-width="1" d="M 68 271 77 248 "/><text class="small" x="72" y="259">(72,259,62)</text><path stroke="red" stroke-width="1" d="M 78 251 92 218 "/><text class="small" x="85" y="234">(85,234,65)</text><path stroke="red" stroke-width="1" d="M 81 240 94 219 "/><text class="small" x="87" y="229">(87,229,91)</text><path stroke="red" stroke-width="1" d="M 113 186 133 181 "/><text class="small" x="123" y="183">(123,183,216)</text><path stroke="red" stroke-width="1" d="M 126 181 126 141 "/><text class="small" x="126" y="161">(126,161,512)</text><path stroke="red" stroke-width="1" d="M 128 181 128 141 "/><text class="small" x="128" y="161">(128,161,512)</text><path stroke="red" stroke-width="1" d="M 164 220 176 245 "/><text class="small" x="170" y="232">(170,232,438)</text><path stroke="red" stroke-width="1" d="M 165 227 184 260 "/><text class="small" x="174" y="243">(174,243,426)</text><path stroke="red" stroke-width="1" d="M 183 262 198 293 "/><text class="small" x="190" y="277">(190,277,438)</text><path stroke="red" stroke-width="1" d="M 189 270 201 295 "/><text class="small" x="195" y="282">(195,282,438)</text><path stroke="red" stroke-width="1" d="M 201 294 214 323 "/><text class="small" x="207" y="308">(207,308,440)</text>"</svg>